<svg xmlns="http://www.w3.org/2000/svg" xmlns:xlink="http://www.w3.org/1999/xlink" viewBox="0 0 500 500"><defs><clipPath id="freepik--clip-path--inject-99"><polygon points="87.86 98.58 94.54 146.78 138.43 140.63 132.45 92.58 87.86 98.58" style="fill:#000000"></polygon></clipPath></defs><g id="freepik--background-complete--inject-99"><path d="M120.82,421.41c20.6-14.39,25.28-41.1,24.46-65.12-.14-4,.3-8.23-1.6-11.75s-6.36-5.92-10-4.23c-3,1.4-4.27,4.87-5.94,7.73a23.41,23.41,0,0,1-9.4,9c-2.55,1.32-5.7,2.13-8.22.74-3.46-1.9-3.87-6.68-3.84-10.67q.06-11.14.13-22.29c0-4,0-8.05-1.2-11.84s-4-7.29-7.77-8.36-8.48,1.13-9.28,5c-.34,1.62,0,3.31-.12,5s-.88,3.49-2.45,4-3.19-.66-4.38-1.83c-4.11-4-6.9-9.21-9.51-14.37s-5.14-10.43-8.88-14.82-8.9-7.87-14.6-8.19-11.8,3.2-13.24,8.8,1.83,11.32,5.4,15.87A88.91,88.91,0,0,0,59,321.66c1.25.9,2.62,1.86,3.1,3.34.86,2.65-1.66,5.29-4.28,6.17-3,1-6.19.68-9.3,1S42,334,40.83,336.89C39.19,341,42.6,345.23,46,348a76.19,76.19,0,0,0,22.56,13c2.94,1.08,6,2,8.39,4.08s-1.31,9.35-2.74,12.16,0,0-3.07-.57-5.82-2.24-8.75-3.34c-5.47-2.07-12.55-1.69-16.06,3-2.3,3.11-2.51,7.45-1.34,11.16s3.53,6.9,6,9.85c8.78,10.3,20,18.59,32.73,23s24.48,5.6,37.11,1" style="fill:#ebebeb"></path><path d="M121.14,439.21a175.46,175.46,0,0,0-6.51-32.85,358.28,358.28,0,0,0-14.18-38.46L96.21,358c-1.4-3.24-2.78-6.46-4.33-9.52A177.93,177.93,0,0,0,82,331.41c-3.42-5.28-6.85-10.17-10.09-14.72s-6.37-8.71-9.37-12.4A141.68,141.68,0,0,0,47.07,288c-2-1.78-3.54-3.11-4.61-4l-1.23-1a2.56,2.56,0,0,0-.44-.33,2.44,2.44,0,0,0,.39.38l1.18,1.06c1,.92,2.58,2.28,4.52,4.09a151.14,151.14,0,0,1,15.23,16.43c3,3.7,6,7.88,9.27,12.43s6.63,9.45,10,14.73a179.77,179.77,0,0,1,9.84,17c1.54,3,2.91,6.23,4.3,9.49l4.23,9.88A365.11,365.11,0,0,1,114,406.55a177.93,177.93,0,0,1,6.64,32.71" style="fill:#e0e0e0"></path><path d="M91.67,348.46a7.69,7.69,0,0,0,.39-1.7c.21-1.1.46-2.7.74-4.69.56-4,1.15-9.48,1.78-15.55S95.88,315,96.5,311c.31-2,.57-3.57.77-4.68a7.75,7.75,0,0,0,.22-1.73,8.5,8.5,0,0,0-.5,1.67c-.28,1.09-.63,2.68-1,4.65-.75,3.94-1.51,9.44-2.13,15.52S92.7,337.86,92.28,342c-.2,1.87-.37,3.44-.5,4.71A7.84,7.84,0,0,0,91.67,348.46Z" style="fill:#e0e0e0"></path><path d="M40.42,338.88a10.93,10.93,0,0,0,2,.25c1.32.11,3.22.27,5.57.55,4.69.5,11.15,1.43,18.23,2.76s13.44,2.84,18,4.06c2.29.59,4.13,1.11,5.4,1.47a10.85,10.85,0,0,0,2,.49,10.83,10.83,0,0,0-1.92-.77c-1.25-.44-3.07-1-5.34-1.7-4.55-1.35-10.91-2.92-18-4.28s-13.6-2.18-18.32-2.56c-2.36-.2-4.28-.28-5.6-.31A11.35,11.35,0,0,0,40.42,338.88Z" style="fill:#e0e0e0"></path><path d="M114,405.41s.15-.2.36-.62l.87-1.86c.76-1.61,1.79-4,3-6.91,2.47-5.87,5.63-14.09,9-23.2s6.45-17.36,8.79-23.27l2.8-7c.3-.76.55-1.39.75-1.91a2.69,2.69,0,0,0,.22-.68,2.8,2.8,0,0,0-.35.62l-.88,1.85c-.75,1.62-1.78,4-3,6.92-2.47,5.87-5.63,14.09-9,23.21s-6.44,17.35-8.79,23.26c-1.15,2.88-2.09,5.24-2.8,7-.3.76-.55,1.39-.75,1.91A3.35,3.35,0,0,0,114,405.41Z" style="fill:#e0e0e0"></path><path d="M45.89,383.46a2.53,2.53,0,0,0,.68.28l2,.67,7.3,2.36c6.15,2,14.63,4.85,24,8s17.86,5.95,24.07,7.82c3.1.94,5.61,1.67,7.36,2.14l2,.53a2.4,2.4,0,0,0,.71.13,2.77,2.77,0,0,0-.67-.28l-2-.66-7.29-2.36c-6.16-2-14.63-4.85-24-8S62.19,388.14,56,386.27c-3.1-.94-5.62-1.67-7.37-2.14l-2-.53A3.45,3.45,0,0,0,45.89,383.46Z" style="fill:#e0e0e0"></path><polygon points="373.2 71.38 318.16 205.79 416.97 245.47 471.17 111.94 373.2 71.38" style="fill:#e6e6e6"></polygon><path d="M373.2,71.38l98,40.45.11,0-.05.11c-15.22,37.52-33.94,83.69-54.17,133.55l-.05.13-.14,0-.72-.29-98.08-39.41-.12,0,.05-.12L373.2,71.38,318.28,205.84l-.07-.17,98.09,39.38.72.29-.19.08c20.25-49.85,39-96,54.23-133.53l.06.15Z" style="fill:#e6e6e6"></path><polygon points="365.99 58.55 310.95 192.96 409.76 232.65 463.96 99.11 365.99 58.55" style="fill:#fafafa"></polygon><path d="M366,58.55,464,99l.11,0,0,.11L409.89,232.7l-.05.14-.13-.06-.72-.29-98.09-39.4-.12-.05.05-.13L366,58.55,311.07,193l-.07-.17,98.09,39.39.72.28-.18.08c20.24-49.85,39-96,54.22-133.53l.06.16Z" style="fill:#ebebeb"></path><path d="M440.37,119.54c-.09.23-17.22-6.24-38.26-14.45s-38-15-37.95-15.25,17.22,6.24,38.26,14.45S440.46,119.32,440.37,119.54Z" style="fill:#e0e0e0"></path><path d="M436.59,131.84c-.09.22-17.22-6.25-38.26-14.45s-38-15-37.95-15.26,17.22,6.25,38.26,14.46S436.67,131.62,436.59,131.84Z" style="fill:#e0e0e0"></path><path d="M423.81,169.1c-.08.22-17.22-6.25-38.26-14.45s-38-15-37.94-15.26,17.21,6.25,38.26,14.45S423.9,168.88,423.81,169.1Z" style="fill:#e0e0e0"></path><path d="M417.78,181.69c-.08.22-17.22-6.25-38.26-14.45s-38-15-37.94-15.26,17.21,6.24,38.26,14.45S417.87,181.46,417.78,181.69Z" style="fill:#e0e0e0"></path><path d="M412.77,194.4c-.09.22-17.22-6.25-38.26-14.45s-38-15-37.94-15.26,17.21,6.25,38.26,14.45S412.86,194.18,412.77,194.4Z" style="fill:#e0e0e0"></path><path d="M407.76,207.11c-.09.22-17.22-6.25-38.26-14.45s-38-15-37.94-15.26,17.21,6.25,38.26,14.45S407.85,206.89,407.76,207.11Z" style="fill:#e0e0e0"></path><path d="M377.4,106.43c-.25.52-1.27,2.88-1.27,2.88l41.69,16.91,1.27-3.58Z" style="fill:#ebebeb"></path><path d="M356.41,111.66c-.26.52-1.79,3.72-1.79,3.72l78.15,29.76,1.92-4.08Z" style="fill:#ebebeb"></path><path d="M351.87,124.32,350.09,128l78.14,29.76,1.92-4.08Z" style="fill:#ebebeb"></path><path d="M347.94,137.6c-.08.19-1.4,4-1.4,4l39.11,15,2.2-4.59Z" style="fill:#ebebeb"></path></g><g id="freepik--Document--inject-99"><path d="M98.94,66.79C97.6,112,93.67,281.94,92.63,327.28a11.26,11.26,0,0,0,10.92,11.52l186.24,5.69a11.27,11.27,0,0,0,11.61-11l2.9-131.34,15.77-.26a7.17,7.17,0,0,0,7.05-7.08L328.33,89a7.17,7.17,0,0,0-7.05-7.24L307,81.48l.11-10.23a11.21,11.21,0,0,0-11-11.33l-185.79-4A11.2,11.2,0,0,0,98.94,66.79Z" style="fill:#000000"></path><path d="M98.94,66.79C97.6,112,93.67,281.94,92.63,327.28a11.26,11.26,0,0,0,10.92,11.52l186.24,5.69a11.27,11.27,0,0,0,11.61-11l2.9-131.34,15.77-.26a7.17,7.17,0,0,0,7.05-7.08L328.33,89a7.17,7.17,0,0,0-7.05-7.24L307,81.48l.11-10.23a11.21,11.21,0,0,0-11-11.33l-185.79-4A11.2,11.2,0,0,0,98.94,66.79Z" style="opacity:0.4"></path><polygon points="113.09 68.73 96.66 330.4 288.57 341.15 304.06 81.45 113.09 68.73" style="fill:#e0e0e0"></polygon><polygon points="90.02 63.05 91.3 325.24 283.5 323 281.42 62.85 90.02 63.05" style="fill:#ebebeb"></polygon><polygon points="64.86 81.09 101.14 340.76 291.32 312.88 254.52 55.34 64.86 81.09" style="fill:#fafafa"></polygon><path d="M64.86,81.09l189.63-26,.21,0,0,.21c10.35,72.35,23.09,161.38,36.84,257.53l0,.26-.26,0-1.38.2L101.17,341l-.24,0,0-.24c-21.32-153.63-35.75-257.63-36-259.7l36.51,259.64-.27-.21,188.79-27.69,1.39-.21-.22.3c-13.72-96.16-26.43-185.19-36.75-257.55l.24.18Z" style="fill:#263238"></path><path d="M242.57,141.26c.07.43-32.53,5.9-72.81,12.23s-73,11.1-73,10.68,32.53-5.9,72.81-12.23S242.5,140.84,242.57,141.26Z" style="fill:#263238"></path><path d="M256.5,211c.06.42-32.54,5.9-72.81,12.22s-73,11.11-73,10.68,32.52-5.9,72.81-12.22S256.43,210.56,256.5,211Z" style="fill:#263238"></path><path d="M258.53,236.1c.06.43-32.54,5.9-72.81,12.22s-73,11.11-73,10.68,32.52-5.9,72.81-12.22S258.46,235.67,258.53,236.1Z" style="fill:#263238"></path><path d="M235.17,86.17c0,.39-21.88,3.8-48.9,7.62s-49,6.6-49,6.21,21.88-3.81,48.91-7.62S235.15,85.78,235.17,86.17Z" style="fill:#263238"></path><path d="M238.26,100.07c0,.39-21.88,3.81-48.9,7.62s-49,6.6-49,6.21,21.87-3.8,48.9-7.62S238.25,99.68,238.26,100.07Z" style="fill:#263238"></path><path d="M242,114.74c0,.4-21.88,3.81-48.91,7.63s-48.94,6.59-49,6.2S166,124.77,193,121,242,114.35,242,114.74Z" style="fill:#263238"></path><path d="M262.26,260.48c.07.42-32.53,5.9-72.81,12.22s-73,11.11-73,10.68,32.53-5.9,72.81-12.22S262.19,260.05,262.26,260.48Z" style="fill:#263238"></path><path d="M266,284.86c.07.42-32.53,5.9-72.8,12.22s-73,11.11-73.06,10.68,32.53-5.9,72.82-12.22S265.93,284.43,266,284.86Z" style="fill:#263238"></path><path d="M127.16,155.4c.08,1,.63,5.66.63,5.66l80.39-11.52-1.25-6.73Z" style="fill:#000000"></path><path d="M99.16,182.64c.09,1,.6,7.43.6,7.43l148.93-24.59-.71-8.1Z" style="fill:#000000"></path><path d="M103.59,206.5c.09,1,.6,7.44.6,7.44l148.93-24.59-.71-8.11Z" style="fill:#000000"></path><path d="M109.54,230.79c0,.37,1.46,7.55,1.46,7.55l74.63-12.14-.74-9.17Z" style="fill:#000000"></path><polygon points="87.86 98.58 94.54 146.78 138.43 140.63 132.45 92.58 87.86 98.58" style="fill:#263238"></polygon><polygon points="87.86 98.58 94.54 146.78 138.43 140.63 132.45 92.58 87.86 98.58" style="fill:#000000"></polygon><g style="clip-path:url(#freepik--clip-path--inject-99)"><path d="M109.74,138.5,123,134.92c-.21-1.59-1.46-7.63-1.46-7.63s5.43-1.91,4.45-7.51-4.33-18.24-4.33-18.24h0a19.74,19.74,0,0,0-19,6.1l-.71.79Z" style="fill:#ffbe9d"></path><path d="M122.13,111.38A.82.82,0,1,1,123,110a.81.81,0,0,1,.27,1.13A.83.83,0,0,1,122.13,111.38Z" style="fill:#263238"></path><path d="M123.25,109.85c-.07.12-.7-.2-1.47-.06s-1.25.64-1.35.56,0-.23.21-.46a1.85,1.85,0,0,1,1.06-.57,2,2,0,0,1,1.19.17C123.17,109.64,123.28,109.8,123.25,109.85Z" style="fill:#263238"></path><path d="M114.51,112.18a.82.82,0,0,1,.48,1.06.82.82,0,1,1-1.54-.59A.82.82,0,0,1,114.51,112.18Z" style="fill:#263238"></path><path d="M115,112.09c-.07.11-.7-.21-1.46-.07s-1.26.65-1.36.56,0-.22.21-.46a2,2,0,0,1,2.26-.39C114.94,111.88,115.06,112,115,112.09Z" style="fill:#263238"></path><path d="M119.29,117.86a3.89,3.89,0,0,1,1.19-.5c.2-.06.35-.13.35-.24a1.14,1.14,0,0,0-.26-.55l-.9-1.45a22.7,22.7,0,0,1-2.08-3.86,20.78,20.78,0,0,1,2.46,3.63l.87,1.47a1.29,1.29,0,0,1,.27.81.52.52,0,0,1-.29.39,1.41,1.41,0,0,1-.33.11A3.85,3.85,0,0,1,119.29,117.86Z" style="fill:#263238"></path><path d="M117,119.18c-.89-.33,2.43.76,4,.39a2.16,2.16,0,0,1-2.35,1.31C116.79,120.58,117,119.18,117,119.18Z" style="fill:#fff"></path><path d="M121.51,127.21a13.18,13.18,0,0,1-7.67-.71s2.47,3.7,8,2.15Z" style="fill:#eb996e"></path><path d="M102.87,113.83c-.13,0-4.22.47-2.67,5s5.66,1.5,5.63,1.37S102.87,113.83,102.87,113.83Z" style="fill:#ffbe9d"></path><path d="M103.88,119.12s-.06.08-.18.19a.85.85,0,0,1-.59.21c-.54,0-1.21-.64-1.51-1.46a2.79,2.79,0,0,1-.16-1.22,1,1,0,0,1,.39-.82.42.42,0,0,1,.54.06c.11.11.11.21.14.21s.07-.11,0-.29a.54.54,0,0,0-.28-.22.62.62,0,0,0-.48,0,1.19,1.19,0,0,0-.59,1,2.85,2.85,0,0,0,.15,1.37,2.19,2.19,0,0,0,1.84,1.59.88.88,0,0,0,.68-.37C103.91,119.23,103.9,119.12,103.88,119.12Z" style="fill:#eb996e"></path><path d="M121.58,101.38c-.73,4.11-6,6.66-10.06,7.65,1.59-2,.48-1.45,1.44-2.84a17.64,17.64,0,0,1-10.58,6.35,7.57,7.57,0,0,1,3.17-10.41c1.19-.61,2.51-.9,3.74-1.43,1-.45,2-1.08,3.06-1.45,3.2-1.1,8.37-3,9.23,2.13" style="fill:#263238"></path><path d="M104.5,110c-.11.58-.1,7.14-.1,7.14l-2.57-5.85Z" style="fill:#263238"></path><path d="M83.46,161.85l11.11-16.37h0a24.65,24.65,0,0,1,8.31-7.89,19.62,19.62,0,0,1,5.71-2.24h0a24.21,24.21,0,0,0,14.32-2.67,35,35,0,0,1,11.89,1.13h0l22,4.48-3.18,19.3L142,156l2.52,17.12,6.92,25-42.36,8.36-3.76-23.17-3.08-16.69-5,7.1Z" style="fill:#455a64"></path></g></g></svg>